<?xml version="1.0" encoding="utf-8"?>
<!-- Generator: Adobe Illustrator 16.0.0, SVG Export Plug-In . SVG Version: 6.00 Build 0)  -->
<!DOCTYPE svg PUBLIC "-//W3C//DTD SVG 1.1//EN" "http://www.w3.org/Graphics/SVG/1.1/DTD/svg11.dtd">
<svg version="1.1" id="Layer_1" xmlns="http://www.w3.org/2000/svg" xmlns:xlink="http://www.w3.org/1999/xlink" x="0px" y="0px"
	 width="509.922px" height="223.91px" viewBox="159.214 151.129 509.922 223.91"
	 enable-background="new 159.214 151.129 509.922 223.91" xml:space="preserve">
<polygon fill="#1E1E1C" points="499.447,358.305 499.447,375.039 641.08,375.039 641.08,358.305 "/>
<path fill="#FFFFFF" d="M505.22,371.414h1.996v-7.402h0.027l1.533,7.402h1.73l1.453-7.402h0.027v7.402h2.076v-9.51h-3.236
	l-1.135,6.245h-0.023l-1.174-6.245h-3.275V371.414L505.22,371.414z M529.972,367.875h-1.627l0.785-4.237h0.029L529.972,367.875
	L529.972,367.875z M525.378,371.414h2.314l0.334-1.809h2.277l0.346,1.809h2.318l-2.371-9.51H527.8L525.378,371.414L525.378,371.414z
	 M550.154,364.794c0-1.078-0.119-3.075-3.012-3.075c-3.17,0-3.381,2.022-3.381,5.142c0,2.973,0.398,4.743,2.783,4.743
	c0.865,0,1.705-0.239,2.051-1.091h0.027l0.053,0.9h1.529v-5.099h-3.129v1.491h1.053v0.307c0,1.307-0.266,2-1.027,2
	c-0.891,0-1.023-0.841-1.023-3.441c0-2.53,0.105-3.463,1.023-3.463c0.828,0,0.896,0.976,0.896,1.586H550.154L550.154,364.794z
	 M565.833,367.875h-1.625l0.789-4.237h0.023L565.833,367.875L565.833,367.875z M561.238,371.414h2.316l0.336-1.809h2.275
	l0.346,1.809h2.318l-2.369-9.51h-2.799L561.238,371.414L561.238,371.414z M579.689,371.414h5.793v-1.808h-3.262l3.262-6.13v-1.572
	h-5.537v1.813h2.965l-3.221,6.048V371.414L579.689,371.414z M597.046,371.414h2.238v-9.51h-2.238V371.414L597.046,371.414z
	 M611.236,371.414h1.998v-6.553h0.023l1.961,6.553h2.529v-9.51h-2.078v6.182h-0.025l-1.84-6.182h-2.568V371.414L611.236,371.414z
	 M629.66,371.414h5.646v-1.808h-3.408v-2.175h3.063v-1.809h-3.063v-1.906h3.262v-1.813h-5.498v9.511H629.66z"/>
<path fill="none" stroke="#004CFF" stroke-width="0.5" stroke-miterlimit="3" d="M269.534,351.537h2.418V170.89
	c0-11.573,1.489-15.243,9.674-15.243h8.186v-4.516h-39.254v4.516h8.744c8.186,0,9.674,3.67,9.674,15.243v127.582h-0.373
	l-70.321-147.34h-39.067v4.516h17.859v173.596c0,13.547-2.977,16.088-11.535,16.088h-6.325v4.517h39.811v-4.517h-7.441
	c-8.558,0-11.533-2.541-11.533-16.088V164.68h0.372L269.534,351.537L269.534,351.537z M318.646,345.33h-16.373v4.517h108.46V291.98
	h-2.978c0,47.988-14.511,53.352-44.648,53.352h-25.487v-94.279h13.767c19.534,0,21.395,12.986,21.395,34.435h2.978v-75.081h-2.978
	c0,18.346-1.86,36.13-21.208,36.13h-13.953v-90.891h29.208c19.72,0,33.859,11.008,33.859,43.47h2.977l-2.232-47.986h-99.159v4.516
	h16.373V345.33L318.646,345.33z M468.777,155.646h15.627v-4.516h-54.51v4.516h16.184l36.281,96.253l-33.676,79.034
	c-5.582,13.268-11.906,14.396-20.836,14.396h-4.65v4.516h43.721v-4.516h-9.303c-4.652,0-7.256-1.695-7.256-5.082
	c0-2.261,0.186-3.389,6.51-18.349l27.35-64.921l32.369,88.352H499.66v4.516h54.135v-4.516h-15.068l-42.6-115.448l23.811-57.018
	c5.207-12.418,8.742-17.219,16.557-17.219h6.139v-4.516h-40.369v4.516h5.768c8.932,0,10.789,2.541,10.789,7.339
	c0,2.259-0.555,4.234-2.604,9.032l-22.135,53.067L468.777,155.646L468.777,155.646z M602.722,345.33h-19.164v4.517h57.301v-4.517
	h-19.162V155.646h4.094c32.928,0,40.369,7.622,40.369,53.913h2.977v-58.428H555.281v58.428h2.977
	c0-46.291,7.441-53.913,40.555-53.913h3.91V345.33L602.722,345.33z"/>
<path fill="#004CFF" d="M269.534,351.537h2.418V170.89c0-11.573,1.489-15.243,9.674-15.243h8.186v-4.516h-39.254v4.516h8.744
	c8.186,0,9.674,3.67,9.674,15.243v127.582h-0.373l-70.321-147.34h-39.067v4.516h17.859v173.596c0,13.547-2.977,16.088-11.535,16.088
	h-6.325v4.517h39.811v-4.517h-7.441c-8.558,0-11.533-2.541-11.533-16.088V164.68h0.372L269.534,351.537L269.534,351.537z
	 M318.646,345.33h-16.373v4.517h108.46V291.98h-2.978c0,47.988-14.511,53.352-44.648,53.352h-25.487v-94.279h13.767
	c19.534,0,21.395,12.986,21.395,34.435h2.978v-75.081h-2.978c0,18.346-1.86,36.13-21.208,36.13h-13.953v-90.891h29.208
	c19.72,0,33.859,11.008,33.859,43.47h2.977l-2.232-47.986h-99.159v4.516h16.373V345.33L318.646,345.33z M468.777,155.646h15.627
	v-4.516h-54.51v4.516h16.184l36.281,96.253l-33.676,79.034c-5.582,13.268-11.906,14.396-20.836,14.396h-4.65v4.516h43.721v-4.516
	h-9.303c-4.652,0-7.256-1.695-7.256-5.082c0-2.261,0.186-3.389,6.51-18.349l27.35-64.921l32.369,88.352H499.66v4.516h54.135v-4.516
	h-15.068l-42.6-115.448l23.811-57.018c5.207-12.418,8.742-17.219,16.557-17.219h6.139v-4.516h-40.369v4.516h5.768
	c8.932,0,10.789,2.541,10.789,7.339c0,2.259-0.555,4.234-2.604,9.032l-22.135,53.067L468.777,155.646L468.777,155.646z
	 M602.722,345.33h-19.164v4.517h57.301v-4.517h-19.162V155.646h4.094c32.928,0,40.369,7.622,40.369,53.913h2.977v-58.428H555.281
	v58.428h2.977c0-46.291,7.441-53.913,40.555-53.913h3.91V345.33L602.722,345.33z"/>
</svg>
